<?xml version="1.0" encoding="utf-8"?>
<svg xmlns="http://www.w3.org/2000/svg">
    <defs>
        <symbol id="menu" viewBox="0 0 24 24" fill="currentColor">
            <path d="M3,6H21V8H3V6M3,11H21V13H3V11M3,16H21V18H3V16Z"/>
        </symbol>
        <symbol id="close" viewBox="0 0 24 24" fill="currentColor">
            <path d="M19,6.41L17.59,5L12,10.59L6.41,5L5,6.41L10.59,12L5,17.59L6.41,19L12,13.41L17.59,19L19,17.59L13.41,12L19,6.41Z"/>
        </symbol>
        <symbol id="home" viewBox="0 0 24 24" fill="currentColor">
            <path d="m6 19h3v-6h6v6h3v-9l-6-4.5-6 4.5zm-2 2v-12l8-6 8 6v12h-7v-6h-2v6z"/>
        </symbol>
        <symbol id="command" viewBox="0 0 24 24" fill="currentColor">
            <path d="M20,19V7H4V19H20M20,3A2,2 0 0,1 22,5V19A2,2 0 0,1 20,21H4A2,2 0 0,1 2,19V5C2,3.89 2.9,3 4,3H20M13,17V15H18V17H13M9.58,13L5.57,9H8.4L11.7,12.3C12.09,12.69 12.09,13.33 11.7,13.72L8.42,17H5.59L9.58,13Z"/>
        </symbol>
        <symbol id="import" viewBox="0 0 24 24" fill="currentColor">
            <path d="M14,12L10,8V11H2V13H10V16M20,18V6C20,4.89 19.1,4 18,4H6A2,2 0 0,0 4,6V9H6V6H18V18H6V15H4V18A2,2 0 0,0 6,20H18A2,2 0 0,0 20,18Z"/>
        </symbol>
        <symbol id="export" viewBox="0 0 24 24" fill="currentColor">
            <path d="m12 16-5-5 1.4-1.45 2.6 2.6v-8.15h2v8.15l2.6-2.6 1.4 1.45zm-6 4c-.55 0-1.021-.196-1.412-.587-.392-.392-.588-.863-.588-1.413v-3h2v3h12v-3h2v3c0 .55-.196 1.021-.587 1.413-.392.391-.863.587-1.413.587z"/>
        </symbol>
        <symbol id="table-add" viewBox="0 0 24 24" fill="currentColor">
            <path d="M18,14H20V17H23V19H20V22H18V19H15V17H18V14M4,3H18A2,2 0 0,1 20,5V12.08C18.45,11.82 16.92,12.18 15.68,13H12V17H13.08C12.97,17.68 12.97,18.35 13.08,19H4A2,2 0 0,1 2,17V5A2,2 0 0,1 4,3M4,7V11H10V7H4M12,7V11H18V7H12M4,13V17H10V13H4Z"/>
        </symbol>
        <symbol id="view-add" viewBox="0 0 24 24" fill="currentColor">
            <path d="M12,4.5C7,4.5 2.73,7.61 1,12C2.73,16.39 7,19.5 12,19.5C12.36,19.5 12.72,19.5 13.08,19.45C13.03,19.13 13,18.82 13,18.5C13,18.14 13.04,17.78 13.1,17.42C12.74,17.46 12.37,17.5 12,17.5C8.24,17.5 4.83,15.36 3.18,12C4.83,8.64 8.24,6.5 12,6.5C15.76,6.5 19.17,8.64 20.82,12C20.7,12.24 20.56,12.45 20.43,12.68C21.09,12.84 21.72,13.11 22.29,13.5C22.56,13 22.8,12.5 23,12C21.27,7.61 17,4.5 12,4.5M12,9A3,3 0 0,0 9,12A3,3 0 0,0 12,15A3,3 0 0,0 15,12A3,3 0 0,0 12,9M18,14.5V17.5H15V19.5H18V22.5H20V19.5H23V17.5H20V14.5H18Z" />
        </symbol>
        <symbol id="function-add" viewBox="0 0 24 24" fill="currentColor">
            <path d="m17 12h2v3h3v2h-3v3h-2v-3h-3v-2h3zm-3.37-6.71c-1.1-.1-2.07.71-2.17 1.82l-.25 2.89h2.82v2h-3l-.44 5.07c-.19 2.2-2.13 3.83-4.33 3.63-1.31-.11-2.41-.84-3.06-1.87l1.5-1.5c.24.74.9 1.31 1.73 1.38 1.1.1 2.07-.71 2.17-1.82l.43-4.89h-3v-2h3.17l.27-3.07c.19-2.2 2.13-3.83 4.33-3.63 1.31.11 2.41.84 3.06 1.87l-1.5 1.5c-.24-.74-.9-1.31-1.73-1.38z"/>
        </symbol>
        <symbol id="event-add" viewBox="0 0 24 24" fill="currentColor">
            <path d="M19 19V8H5V19H19M16 1H18V3H19C20.11 3 21 3.9 21 5V19C21 20.11 20.11 21 19 21H5C3.89 21 3 20.1 3 19V5C3 3.89 3.89 3 5 3H6V1H8V3H16V1M11 9.5H13V12.5H16V14.5H13V17.5H11V14.5H8V12.5H11V9.5Z" />
        </symbol>
        <symbol id="check" viewBox="0 0 24 24" fill="currentColor">
            <path d="M21,7L9,19L3.5,13.5L4.91,12.09L9,16.17L19.59,5.59L21,7Z" />
        </symbol>
        <symbol id="add" viewBox="0 0 24 24" fill="currentColor">
            <path d="M19,13H13V19H11V13H5V11H11V5H13V11H19V13Z"/>
        </symbol>
        <symbol id="remove" viewBox="0 0 24 24" fill="currentColor">
            <path d="M19,6.41L17.59,5L12,10.59L6.41,5L5,6.41L10.59,12L5,17.59L6.41,19L12,13.41L17.59,19L19,17.59L13.41,12L19,6.41Z"/>
        </symbol>
        <symbol id="handle" viewBox="0 0 24 24" fill="currentColor">
            <path d="M21 11H3V9H21V11M21 13H3V15H21V13Z"/>
        </symbol>
        <symbol id="chevron-down" viewBox="0 0 24 24" fill="currentColor">
            <path d="M7.41,8.58L12,13.17L16.59,8.58L18,10L12,16L6,10L7.41,8.58Z"/>
        </symbol>
        <symbol id="arrow-up" viewBox="0 0 24 24" fill="currentColor">
            <path d="M13,20H11V8L5.5,13.5L4.08,12.08L12,4.16L19.92,12.08L18.5,13.5L13,8V20Z"/>
        </symbol>
        <symbol id="arrow-down" viewBox="0 0 24 24" fill="currentColor">
            <path d="M11,4H13V16L18.5,10.5L19.92,11.92L12,19.84L4.08,11.92L5.5,10.5L11,16V4Z"/>
        </symbol>
        <symbol id="edit" viewBox="0 0 24 24" fill="currentColor">
            <path d="m5 19h1.425l9.775-9.775-1.425-1.425-9.775 9.775zm-2 2v-4.25l13.2-13.175c.2-.183.421-.325.663-.425.241-.1.495-.15.762-.15s.525.05.775.15.467.25.65.45l1.375 1.4c.2.183.346.4.438.65.091.25.137.5.137.75 0 .267-.046.521-.137.762-.092.242-.238.463-.438.663l-13.175 13.175h-4.25zm16-14.6-1.4-1.4zm-3.525 2.125-.7-.725 1.425 1.425z"/>
        </symbol>
        <symbol id="edit-all" viewBox="0 0 24 24" fill="currentColor">
            <path d="m5 3h7v2h-7v14h14v-7h2v7c0 1.097-.903 2-2 2h-14c-1.097 0-2-.903-2-2v-14c0-1.11.89-2 2-2zm3 13v-4.25l9.2-9.175c.2-.183.421-.325.662-.425.242-.1.496-.15.763-.15s.525.05.775.15.467.25.65.45l1.375 1.4c.2.183.346.4.438.65.091.25.137.5.137.75 0 .267-.046.521-.137.762-.092.242-.238.463-.438.663l-9.175 9.175zm7.775-9.2-5.775 5.775v1.425h1.425l5.775-5.775-.725-.7z"/>
        </symbol>
        <symbol id="database-add" viewBox="0 0 24 24" fill="currentColor">
            <path d="M20 13.09V7C20 4.79 16.42 3 12 3S4 4.79 4 7V17C4 19.21 7.59 21 12 21C12.46 21 12.9 21 13.33 20.94C13.12 20.33 13 19.68 13 19L13 18.95C12.68 19 12.35 19 12 19C8.13 19 6 17.5 6 17V14.77C7.61 15.55 9.72 16 12 16C12.65 16 13.27 15.96 13.88 15.89C14.93 14.16 16.83 13 19 13C19.34 13 19.67 13.04 20 13.09M18 12.45C16.7 13.4 14.42 14 12 14S7.3 13.4 6 12.45V9.64C7.47 10.47 9.61 11 12 11S16.53 10.47 18 9.64V12.45M12 9C8.13 9 6 7.5 6 7S8.13 5 12 5 18 6.5 18 7 15.87 9 12 9M23 18V20H20V23H18V20H15V18H18V15H20V18H23Z"/>
        </symbol>
        <symbol id="users" viewBox="0 0 24 24" fill="currentColor">
            <path d="M13.07 10.41A5 5 0 0 0 13.07 4.59A3.39 3.39 0 0 1 15 4A3.5 3.5 0 0 1 15 11A3.39 3.39 0 0 1 13.07 10.41M5.5 7.5A3.5 3.5 0 1 1 9 11A3.5 3.5 0 0 1 5.5 7.5M7.5 7.5A1.5 1.5 0 1 0 9 6A1.5 1.5 0 0 0 7.5 7.5M16 17V19H2V17S2 13 9 13 16 17 16 17M14 17C13.86 16.22 12.67 15 9 15S4.07 16.31 4 17M15.95 13A5.32 5.32 0 0 1 18 17V19H22V17S22 13.37 15.94 13Z"/>
        </symbol>
        <symbol id="user-add" viewBox="0 0 24 24" fill="currentColor">
            <path d="M15,14C12.33,14 7,15.33 7,18V20H23V18C23,15.33 17.67,14 15,14M6,10V7H4V10H1V12H4V15H6V12H9V10M15,12A4,4 0 0,0 19,8A4,4 0 0,0 15,4A4,4 0 0,0 11,8A4,4 0 0,0 15,12Z"/>
        </symbol>
        <symbol id="list" viewBox="0 0 24 24" fill="currentColor">
            <path d="M7,5H21V7H7V5M7,13V11H21V13H7M4,4.5A1.5,1.5 0 0,1 5.5,6A1.5,1.5 0 0,1 4,7.5A1.5,1.5 0 0,1 2.5,6A1.5,1.5 0 0,1 4,4.5M4,10.5A1.5,1.5 0 0,1 5.5,12A1.5,1.5 0 0,1 4,13.5A1.5,1.5 0 0,1 2.5,12A1.5,1.5 0 0,1 4,10.5M7,19V17H21V19H7M4,16.5A1.5,1.5 0 0,1 5.5,18A1.5,1.5 0 0,1 4,19.5A1.5,1.5 0 0,1 2.5,18A1.5,1.5 0 0,1 4,16.5Z"/>
        </symbol>
        <symbol id="variable" viewBox="0 0 24 24" fill="currentColor">
            <path d="M20.41,3C21.8,5.71 22.35,8.84 22,12C21.8,15.16 20.7,18.29 18.83,21L17.3,20C18.91,17.57 19.85,14.8 20,12C20.34,9.2 19.89,6.43 18.7,4L20.41,3M5.17,3L6.7,4C5.09,6.43 4.15,9.2 4,12C3.66,14.8 4.12,17.57 5.3,20L3.61,21C2.21,18.29 1.65,15.17 2,12C2.2,8.84 3.3,5.71 5.17,3M12.08,10.68L14.4,7.45H16.93L13.15,12.45L15.35,17.37H13.09L11.71,14L9.28,17.33H6.76L10.66,12.21L8.53,7.45H10.8L12.08,10.68Z"/>
        </symbol>
        <symbol id="status" viewBox="0 0 24 24" fill="currentColor">
            <path d="M15 13V5A3 3 0 0 0 9 5V13A5 5 0 1 0 15 13M12 4A1 1 0 0 1 13 5V8H11V5A1 1 0 0 1 12 4Z"/>
        </symbol>
        <symbol id="data" viewBox="0 0 24 24" fill="currentColor">
            <path d="m7 17h10v-2h-10zm0-4h10v-2h-10zm0-4h10v-2h-10zm-2 12c-.55 0-1.021-.196-1.412-.587-.392-.392-.588-.863-.588-1.413v-14c0-.55.196-1.021.588-1.413.391-.391.862-.587 1.412-.587h14c.55 0 1.021.196 1.413.587.391.392.587.863.587 1.413v14c0 .55-.196 1.021-.587 1.413-.392.391-.863.587-1.413.587zm0-2h14v-14h-14zm0-14v14z"/>
        </symbol>
        <symbol id="structure" viewBox="0 0 24 24" fill="currentColor">
            <path d="M3 3H17C18.11 3 19 3.9 19 5V12.08C17.45 11.82 15.92 12.18 14.68 13H11V17H12.08C11.97 17.68 11.97 18.35 12.08 19H3C1.9 19 1 18.11 1 17V5C1 3.9 1.9 3 3 3M3 7V11H9V7H3M11 7V11H17V7H11M3 13V17H9V13H3M22.78 19.32L21.71 18.5C21.73 18.33 21.75 18.17 21.75 18S21.74 17.67 21.71 17.5L22.77 16.68C22.86 16.6 22.89 16.47 22.83 16.36L21.83 14.63C21.77 14.5 21.64 14.5 21.5 14.5L20.28 15C20 14.82 19.74 14.65 19.43 14.53L19.24 13.21C19.23 13.09 19.12 13 19 13H17C16.88 13 16.77 13.09 16.75 13.21L16.56 14.53C16.26 14.66 15.97 14.82 15.71 15L14.47 14.5C14.36 14.5 14.23 14.5 14.16 14.63L13.16 16.36C13.1 16.47 13.12 16.6 13.22 16.68L14.28 17.5C14.26 17.67 14.25 17.83 14.25 18S14.26 18.33 14.28 18.5L13.22 19.32C13.13 19.4 13.1 19.53 13.16 19.64L14.16 21.37C14.22 21.5 14.35 21.5 14.47 21.5L15.71 21C15.97 21.18 16.25 21.35 16.56 21.47L16.75 22.79C16.77 22.91 16.87 23 17 23H19C19.12 23 19.23 22.91 19.25 22.79L19.44 21.47C19.74 21.34 20 21.18 20.28 21L21.5 21.5C21.64 21.5 21.77 21.5 21.84 21.37L22.84 19.64C22.9 19.53 22.87 19.4 22.78 19.32M18 19.5C17.17 19.5 16.5 18.83 16.5 18S17.18 16.5 18 16.5 19.5 17.17 19.5 18 18.84 19.5 18 19.5Z" />
        </symbol>
        <symbol id="schema" viewBox="0 0 24 24" fill="currentColor">
            <path d="m9 8v2h-6v-6h6v2h6v-2h6v6h-6v-2h-2v8h2v-2h6v6h-6v-2h-4v-10zm-2-2h-2v2h2zm12 0h-2v2h2zm0 10h-2v2h2z"/>
        </symbol>
        <symbol id="item-add" viewBox="0 0 24 24" fill="currentColor">
            <path d="M12,20C7.59,20 4,16.41 4,12C4,7.59 7.59,4 12,4C16.41,4 20,7.59 20,12C20,16.41 16.41,20 12,20M12,2A10,10 0 0,0 2,12A10,10 0 0,0 12,22A10,10 0 0,0 22,12A10,10 0 0,0 12,2M13,7H11V11H7V13H11V17H13V13H17V11H13V7Z"/>
        </symbol>
        <symbol id="expand" viewBox="0 0 24 24" fill="currentColor">
            <path d="m20 5v-2h-16v2h7v12.17l-5.5-5.5-1.42 1.41 7.92 7.92 7.92-7.92-1.42-1.41-5.5 5.5v-12.17z"/>
        </symbol>
        <symbol id="columns" viewBox="0 0 24 24" fill="currentColor">
            <path d="M4,18l4,0l0,-12l-4,0l0,12Zm6,0l4,0l0,-12l-4,0l0,12Zm6,0l4,0l0,-12l-4,0l0,12Zm-12,2c-0.55,0 -1.021,-0.196 -1.412,-0.587c-0.392,-0.392 -0.588,-0.863 -0.588,-1.413l0,-12c0,-0.55 0.196,-1.021 0.588,-1.413c0.391,-0.391 0.862,-0.587 1.412,-0.587l16,0c0.55,0 1.021,0.196 1.413,0.587c0.391,0.392 0.587,0.863 0.587,1.413l0,12c0,0.55 -0.196,1.021 -0.587,1.413c-0.392,0.391 -0.863,0.587 -1.413,0.587l-16,0Z"/>
        </symbol>
        <symbol id="search" viewBox="0 0 24 24" fill="currentColor">
            <path d="m19.6 21-6.3-6.3c-.5.4-1.075.717-1.725.95s-1.342.35-2.075.35c-1.817 0-3.354-.629-4.613-1.887-1.258-1.259-1.887-2.796-1.887-4.613s.629-3.354 1.888-4.612c1.258-1.259 2.795-1.888 4.612-1.888s3.354.629 4.613 1.888c1.258 1.258 1.887 2.795 1.887 4.612 0 .733-.117 1.425-.35 2.075s-.55 1.225-.95 1.725l6.3 6.3zm-10.1-7c1.25 0 2.312-.437 3.187-1.312s1.313-1.938 1.313-3.188-.438-2.312-1.313-3.187-1.937-1.313-3.187-1.313-2.313.438-3.188 1.313c-.874.875-1.312 1.937-1.312 3.187s.438 2.313 1.313 3.188 1.937 1.312 3.187 1.312z"/>
        </symbol>
        <symbol id="sort" viewBox="0 0 24 24" fill="currentColor">
            <path d="M3,19l0,-2l6,0l0,2l-6,0Zm0,-4l0,-2l10,0l0,2l-10,0Zm0,-4l0,-2l14,0l0,2l-14,0Zm18,-6l0,2l-18,0l0,-2l18,0Z"/>
        </symbol>
        <symbol id="split" viewBox="0 0 24 24" fill="currentColor">
            <path d="M3,5H21V7H3V5M3,11V9H21V11H3M3,19V13H21V19H3Z"/>
        </symbol>
        <symbol id="history" viewBox="0 0 24 24" fill="currentColor">
            <path d="M13.5,8H12V13L16.28,15.54L17,14.33L13.5,12.25V8M13,3A9,9 0 0,0 4,12H1L4.96,16.03L9,12H6A7,7 0 0,1 13,5A7,7 0 0,1 20,12A7,7 0 0,1 13,19C11.07,19 9.32,18.21 8.06,16.94L6.64,18.36C8.27,20 10.5,21 13,21A9,9 0 0,0 22,12A9,9 0 0,0 13,3"/>
        </symbol>
        <symbol id="asterisk" viewBox="0 0 24 24" fill="currentColor">
            <path d="M21 13H14.4L19.1 17.7L17.7 19.1L13 14.4V21H11V14.3L6.3 19L4.9 17.6L9.4 13H3V11H9.6L4.9 6.3L6.3 4.9L11 9.6V3H13V9.4L17.6 4.8L19 6.3L14.3 11H21V13Z"/>
        </symbol>
        <symbol id="help" viewBox="0 0 24 24" fill="currentColor">
            <path d="M11,18H13V16H11V18M12,2A10,10 0 0,0 2,12A10,10 0 0,0 12,22A10,10 0 0,0 22,12A10,10 0 0,0 12,2M12,20C7.59,20 4,16.41 4,12C4,7.59 7.59,4 12,4C16.41,4 20,7.59 20,12C20,16.41 16.41,20 12,20M12,6A4,4 0 0,0 8,10H10A2,2 0 0,1 12,8A2,2 0 0,1 14,10C14,12 11,11.75 11,15H13C13,12.75 16,12.5 16,10A4,4 0 0,0 12,6Z" />
        </symbol>
        <symbol id="settings" viewBox="0 0 24 24" fill="currentColor">
            <path d="M12,8A4,4 0 0,1 16,12A4,4 0 0,1 12,16A4,4 0 0,1 8,12A4,4 0 0,1 12,8M12,10A2,2 0 0,0 10,12A2,2 0 0,0 12,14A2,2 0 0,0 14,12A2,2 0 0,0 12,10M10,22C9.75,22 9.54,21.82 9.5,21.58L9.13,18.93C8.5,18.68 7.96,18.34 7.44,17.94L4.95,18.95C4.73,19.03 4.46,18.95 4.34,18.73L2.34,15.27C2.21,15.05 2.27,14.78 2.46,14.63L4.57,12.97L4.5,12L4.57,11L2.46,9.37C2.27,9.22 2.21,8.95 2.34,8.73L4.34,5.27C4.46,5.05 4.73,4.96 4.95,5.05L7.44,6.05C7.96,5.66 8.5,5.32 9.13,5.07L9.5,2.42C9.54,2.18 9.75,2 10,2H14C14.25,2 14.46,2.18 14.5,2.42L14.87,5.07C15.5,5.32 16.04,5.66 16.56,6.05L19.05,5.05C19.27,4.96 19.54,5.05 19.66,5.27L21.66,8.73C21.79,8.95 21.73,9.22 21.54,9.37L19.43,11L19.5,12L19.43,13L21.54,14.63C21.73,14.78 21.79,15.05 21.66,15.27L19.66,18.73C19.54,18.95 19.27,19.04 19.05,18.95L16.56,17.95C16.04,18.34 15.5,18.68 14.87,18.93L14.5,21.58C14.46,21.82 14.25,22 14,22H10M11.25,4L10.88,6.61C9.68,6.86 8.62,7.5 7.85,8.39L5.44,7.35L4.69,8.65L6.8,10.2C6.4,11.37 6.4,12.64 6.8,13.8L4.68,15.36L5.43,16.66L7.86,15.62C8.63,16.5 9.68,17.14 10.87,17.38L11.24,20H12.76L13.13,17.39C14.32,17.14 15.37,16.5 16.14,15.62L18.57,16.66L19.32,15.36L17.2,13.81C17.6,12.64 17.6,11.37 17.2,10.2L19.31,8.65L18.56,7.35L16.15,8.39C15.38,7.5 14.32,6.86 13.12,6.62L12.75,4H11.25Z"/>
        </symbol>
    </defs>
</svg>
