<svg xmlns="http://www.w3.org/2000/svg" viewBox="0 0 32 32">
    <style>
        @media (prefers-color-scheme: dark) {
            .glyph { fill: #a9d6a9; }
        }
    </style>
    <path class="glyph" d="m25.609 20.518c-1.205 2.17-5.05 3.757-9.609 3.757-4.558 0-8.404-1.587-9.608-3.757-.256-.459-.392-.214-.392.014v3.185c0 3.085 4.477 6.283 10 6.283s10-3.198 10-6.283v-3.185c0-.228-.136-.473-.391-.014zm.016-8.138c-1.185 1.919-5.046 3.325-9.625 3.325s-8.44-1.406-9.625-3.325c-.244-.395-.375-.18-.375-.001v3.748c0 2.804 4.477 5.076 10 5.076s10-2.272 10-5.076v-3.748c0-.179-.131-.394-.375.001zm-9.625-10.38c-5.523 0-10 1.875-10 4.188v2.004c0 2.453 4.477 4.442 10 4.442s10-1.989 10-4.442v-2.004c0-2.313-4.477-4.188-10-4.188z"
          fill="#080" fill-rule="nonzero"/>
</svg>
