<?xml version="1.0" encoding="utf-8"?>
<svg xmlns="http://www.w3.org/2000/svg">
    <defs>
        <symbol id="logo" viewBox="0 0 266 56" fill-rule="nonzero" fill="currentColor">
            <path d="m-.001-0 .277-.7h.144l.275.7h-.172l-.132-.355c-.005-.014-.011-.029-.016-.045s-.011-.033-.016-.05c-.006-.017-.011-.033-.016-.05-.005-.016-.009-.031-.012-.045l.03-.001c-.004.017-.009.033-.013.049-.005.016-.01.032-.015.048-.006.015-.011.031-.017.047-.006.015-.011.032-.017.048l-.132.354h-.168zm.132-.134.053-.129.322.001.052.128z"
                  transform="matrix(40.0246052 0 0 40.024601851 67.46728096 42.0266)"/>
            <path d="m.272.011c-.046 0-.086-.012-.122-.036s-.064-.056-.085-.097c-.02-.042-.031-.089-.031-.143s.011-.101.031-.143c.021-.041.049-.074.085-.098s.077-.036.124-.036c.024 0 .047.004.069.011s.042.017.06.03.033.027.044.044c.011.016.018.033.02.05l-.038.009v-.342h.161v.74h-.149l-.009-.121.032.005c-.002.017-.009.033-.02.048s-.025.029-.042.04c-.017.012-.037.021-.06.028-.022.007-.046.011-.07.011zm.041-.133c.024 0 .046-.006.064-.018s.032-.029.042-.05.014-.046.014-.075-.004-.054-.014-.076c-.01-.021-.024-.038-.042-.05s-.04-.018-.064-.018-.046.006-.063.018c-.018.012-.032.029-.042.05-.01.022-.015.047-.015.076s.005.054.015.075.024.038.042.05c.017.012.039.018.063.018z"
                  transform="matrix(40.0246052 0 0 40.024601851 93.53569184 42.0266)"/>
            <path d="m.07-0v-.531h.152l.005.096-.021.001c.008-.018.018-.033.03-.046.013-.013.027-.024.042-.033.016-.009.032-.016.05-.021.017-.005.034-.007.051-.007.026 0 .05.004.071.012.022.008.04.021.056.038.016.018.029.042.038.072l-.025-.002.008-.016c.009-.016.02-.031.034-.043.013-.013.028-.024.045-.033s.034-.016.052-.021.035-.007.052-.007c.042 0 .077.008.105.025.028.016.049.041.064.073.014.032.021.072.021.119v.324h-.161v-.311c0-.021-.003-.039-.009-.053s-.015-.024-.026-.031c-.012-.007-.027-.011-.044-.011-.014 0-.027.003-.038.007-.012.004-.022.011-.031.019-.008.008-.014.018-.019.028-.005.011-.007.023-.007.036v.316h-.161v-.312c0-.02-.003-.037-.009-.051s-.015-.024-.027-.032c-.012-.007-.026-.011-.042-.011-.014 0-.027.003-.038.007-.012.004-.022.011-.03.019-.009.008-.015.017-.02.028-.005.01-.007.022-.007.035v.317h-.161z"
                  transform="matrix(40.0246052 0 0 40.024601851 118.714990096 42.0266)"/>
            <path d="m.08-0v-.531h.16v.531zm.08-.636c-.03 0-.054-.007-.071-.021-.016-.015-.025-.035-.025-.062 0-.024.009-.044.026-.059.017-.016.04-.023.07-.023s.053.007.07.021c.017.015.025.035.025.061 0 .025-.008.045-.026.06-.017.015-.04.023-.069.023z"
                  transform="matrix(40.0246052 0 0 40.024601851 156.2314948 42.0266)"/>
            <path d="m.071-0v-.531h.152l.005.108-.032.012c.007-.024.02-.046.039-.066s.042-.035.069-.047.055-.018.084-.018c.04 0 .073.008.101.025.027.016.048.04.062.072s.021.072.021.119v.326h-.161v-.313c0-.021-.003-.039-.009-.053s-.015-.025-.028-.031c-.012-.007-.027-.011-.045-.01-.014 0-.027.002-.039.007-.012.004-.022.01-.031.019-.009.008-.015.017-.02.028s-.008.022-.008.035v.318h-.16z"
                  transform="matrix(40.0246052 0 0 40.024601851 168.012041376 42.0266)"/>
            <path d="m.108-0v-.7h.046l.486.637-.012.026c-.001-.005-.001-.019-.001-.042-.001-.023-.001-.05-.001-.081-.001-.032-.001-.065-.001-.098-.001-.033-.001-.064-.001-.093-.001-.029-.001-.051-.001-.066v-.283h.05v.7h-.048l-.489-.641.014-.028c.001.013.001.032.002.056s.001.05.002.079c.001.028.001.056.002.083s.001.05.001.07c.001.019.001.032.001.037v.344h-.05z"
                  transform="matrix(40.0246052 0 0 40.024601851 192.434626624 42.0266)"/>
            <path d="m.29.01c-.05 0-.094-.011-.133-.034s-.07-.054-.092-.095-.033-.088-.033-.142c0-.039.006-.075.019-.108.012-.033.029-.061.051-.086.022-.024.049-.043.08-.056s.064-.02.101-.02c.036 0 .068.006.097.018s.054.029.074.051c.02.023.035.049.045.08.01.03.014.063.013.1l-.001.027h-.442v-.046h.415l-.022.018v-.024c0-.027-.007-.053-.02-.08s-.032-.049-.059-.067-.06-.027-.101-.027c-.038 0-.072.008-.102.025-.029.017-.053.041-.07.073s-.025.072-.025.119c0 .045.008.085.025.119.017.033.041.059.072.078.032.018.071.027.117.027.025 0 .05-.004.076-.012s.055-.025.088-.052l.026.037c-.015.014-.032.027-.052.039-.02.011-.042.021-.067.028s-.051.01-.08.01z"
                  transform="matrix(40.0246052 0 0 40.024601851 221.49254032 42.0266)"/>
            <path d="m.3.01c-.052 0-.098-.012-.138-.035-.041-.023-.072-.056-.095-.097s-.035-.088-.035-.141c0-.052.012-.098.035-.139.023-.04.054-.072.095-.094.04-.023.086-.035.138-.035s.098.012.139.035c.04.022.071.054.094.094.023.041.034.087.034.139 0 .053-.011.1-.034.141s-.054.074-.095.097c-.04.023-.086.035-.138.035zm0-.05c.041 0 .078-.01.11-.029.033-.019.058-.046.076-.079.019-.033.028-.072.028-.115 0-.042-.009-.08-.028-.112-.018-.034-.043-.059-.075-.078-.033-.019-.07-.028-.111-.028-.042 0-.079.009-.111.028-.033.019-.058.044-.077.078-.018.032-.027.07-.027.112 0 .043.009.082.027.115.019.033.044.06.077.079.032.019.069.029.111.029z"
                  transform="matrix(40.0246052 0 0 40.024601851 243.305936176 42.0266)"/>
            <path d="m31.374 35.1c-1.928 3.41-8.08 5.903-15.374 5.903-7.293 0-13.446-2.493-15.373-5.903-.409-.722-.627-.336-.627.022v5.005c0 4.847 7.163 9.873 16 9.873s16-5.026 16-9.873v-5.005c0-.358-.218-.744-.626-.022zm.026-12.788c-1.896 3.015-8.073 5.225-15.4 5.225-7.326 0-13.504-2.21-15.4-5.225-.391-.622-.6-.284-.6-.002v5.889c0 4.407 7.163 7.978 16 7.978s16-3.571 16-7.978v-5.889c0-.282-.209-.62-.6.002zm-15.4-16.312c-8.837 0-16 2.947-16 6.581v3.149c0 3.855 7.163 6.98 16 6.98s16-3.125 16-6.98v-3.149c0-3.634-7.163-6.581-16-6.581z"/>
            <path d="m48-0c5.519 0 10 4.481 10 10s-4.481 10-10 10-10-4.481-10-10 4.481-10 10-10zm-2.883 7.74 5.674 7.51h1.778v-10.5h-1.925v3.144c0 .432.004.842.012 1.23.008.387.019.756.034 1.105.015.35.035.684.06 1.003.025.318.053.626.084.922.009.081.018.162.027.242l-5.682-7.646h-1.748v10.5h1.925v-4.059c0-.147-.002-.297-.007-.448-.005-.152-.013-.324-.024-.518-.011-.193-.029-.43-.053-.712l-.088-1.014z"/>
        </symbol>
    </defs>
</svg>
